<svg width="64" height="24" viewBox="0 0 64 24" fill="none" xmlns="http://www.w3.org/2000/svg">
<path d="M8.69166 13.722C9.70718 13.722 10.5062 13.4074 11.0886 12.7784C11.686 12.1493 11.9846 11.2822 11.9846 10.177C11.9846 8.61282 11.6337 7.33765 10.9318 6.35152C10.2448 5.3484 9.23675 4.84683 7.90762 4.84683C6.8921 4.84683 5.96618 5.17837 5.12987 5.84146V21.3985L8.60205 22.4951L8.15403 23.5152H0.224012V22.7246L2.32972 20.8374V5.33139L0 4.46428L0.448024 3.44415H3.04656C4.49517 3.44415 5.92138 3.39314 7.32519 3.29113C8.37058 3.22312 9.13968 3.18911 9.63251 3.18911C10.6779 3.18911 11.6038 3.44415 12.4103 3.95421C13.2316 4.44728 13.8663 5.13587 14.3144 6.01998C14.7624 6.9041 14.9864 7.88172 14.9864 8.95286C14.9864 10.143 14.6056 11.2652 13.8439 12.3193C13.0823 13.3734 12.1116 14.198 10.9318 14.7931C9.75198 15.3882 8.59459 15.6517 7.45959 15.5837L6.40674 14.7166L6.85476 13.6965H8.66926L8.69166 13.722Z" fill="#12366D"/>
<path d="M23.994 23.4898H17.7441V22.6992L19.7378 20.914V13.467L17.7441 11.8858V11.0952L21.5747 9.463H22.4259V21.5771L24.442 22.4697L23.994 23.4898Z" fill="#12366D"/>
<path d="M41.5983 6.1475V23.5152H40.3662L29.7257 8.18776V21.1434L32.0778 22.4951L31.6298 23.5152H26.3879V22.7246L28.4936 20.8374V5.89247L26.1639 4.46428L26.6119 3.44415H29.9945L40.3662 18.3891V5.79045L38.0365 4.46428L38.4845 3.44415H43.7264V4.26025L41.5983 6.1475Z" fill="#12366D"/>
<path d="M61.8719 19.4602L62.4767 20.5569L58.3549 23.4387C57.7277 23.6598 57.1154 23.8043 56.518 23.8723C55.9356 23.9573 55.3083 23.9998 54.6363 23.9998C52.9786 23.9998 51.5076 23.5663 50.2233 22.6991C48.9539 21.832 47.9608 20.6419 47.2439 19.1287C46.542 17.5985 46.1911 15.8643 46.1911 13.926C46.1911 11.9367 46.7212 10.1005 47.7815 8.41729C48.8419 6.71707 50.1635 5.3824 51.7466 4.41327C53.3296 3.42715 54.8379 2.93408 56.2716 2.93408C57.1228 2.93408 58.116 3.0616 59.2509 3.31663C60.3859 3.57167 61.2148 3.8437 61.7375 4.13274V9.08038H60.8862C59.3928 6.41103 57.4215 5.07636 54.9723 5.07636C53.8971 5.07636 52.9189 5.4079 52.0378 6.07099C51.1567 6.71707 50.4622 7.62669 49.9545 8.79984C49.4616 9.95599 49.2152 11.2567 49.2152 12.7018C49.2152 14.3681 49.4542 15.8898 49.9321 17.2669C50.4249 18.6441 51.1716 19.7493 52.1722 20.5824C53.1728 21.4155 54.4123 21.832 55.8908 21.832C56.5479 21.832 57.093 21.8065 57.5261 21.7555C57.9591 21.7045 58.4744 21.543 59.0717 21.271V15.2522L55.622 14.1555L56.07 13.1354H64V13.926L61.8719 15.8388V19.4602Z" fill="#12366D"/>
<path d="M20.102 4.88222C20.5253 4.88222 20.8684 4.37441 20.8684 3.748C20.8684 3.12158 20.5253 2.61377 20.102 2.61377C19.6788 2.61377 19.3357 3.12158 19.3357 3.748C19.3357 4.37441 19.6788 4.88222 20.102 4.88222Z" stroke="#12366D"/>
<path d="M18.0438 3.08639C18.5276 -0.061817 21.679 -0.0581816 22.1605 3.09002C22.4429 4.93677 21.6668 6.49997 20.9864 7.46697C20.4927 8.17223 19.7116 8.17223 19.2154 7.46697C18.5375 6.49997 17.7613 4.93314 18.0438 3.08639Z" stroke="#12366D"/>
</svg>
